<svg width="36" height="21" viewBox="0 0 36 21" fill="none" xmlns="http://www.w3.org/2000/svg">
<path fill-rule="evenodd" clip-rule="evenodd" d="M20.3494 1.59932C20.7605 1.1918 21.3155 0.962456 21.8944 0.960859C22.4732 0.959262 23.0294 1.18554 23.4428 1.59078C23.8561 1.99602 24.0934 2.54766 24.1032 3.12643C24.1131 3.7052 23.8948 4.2646 23.4955 4.68369L11.769 19.3418C11.5675 19.5589 11.3242 19.7331 11.0538 19.854C10.7834 19.9749 10.4914 20.0401 10.1952 20.0456C9.89908 20.0511 9.60486 19.9968 9.33016 19.8859C9.05547 19.7751 8.80594 19.61 8.5965 19.4006L0.826816 11.6279C0.610361 11.4262 0.436748 11.183 0.316334 10.9128C0.19592 10.6425 0.131173 10.3508 0.125953 10.055C0.120734 9.75916 0.17515 9.46533 0.285956 9.191C0.396761 8.91667 0.561686 8.66747 0.770891 8.45827C0.980096 8.24906 1.2293 8.08414 1.50362 7.97333C1.77795 7.86253 2.07179 7.80811 2.3676 7.81333C2.66342 7.81855 2.95515 7.8833 3.2254 8.00371C3.49565 8.12413 3.73887 8.29774 3.94057 8.51419L10.0917 14.6624L20.2907 1.66394C20.309 1.64126 20.3286 1.61968 20.3494 1.59932ZM17.6469 16.6981L20.3494 19.4006C20.5588 19.6096 20.8082 19.7743 21.0826 19.8848C21.357 19.9954 21.6509 20.0495 21.9467 20.0441C22.2425 20.0386 22.5342 19.9736 22.8043 19.8529C23.0744 19.7323 23.3175 19.5584 23.519 19.3418L35.2455 4.68369C35.4562 4.47572 35.6227 4.22743 35.7353 3.95365C35.8479 3.67987 35.9041 3.38622 35.9006 3.09022C35.8972 2.79422 35.8341 2.50196 35.7152 2.23088C35.5963 1.95979 35.424 1.71546 35.2085 1.51245C34.9931 1.30945 34.7389 1.15195 34.4613 1.04935C34.1836 0.946748 33.8881 0.901156 33.5924 0.915296C33.2968 0.929435 33.007 1.00302 32.7403 1.13165C32.4737 1.26027 32.2358 1.44131 32.0407 1.66394L21.8388 14.6624L20.4141 13.2348L17.644 16.6981H17.6469Z" fill="white"/>
</svg>
