<?xml version="1.0" encoding="utf-8"?>
<svg version="1.1" id="Слой_1" xmlns="http://www.w3.org/2000/svg" xmlns:xlink="http://www.w3.org/1999/xlink" x="0px" y="0px"
	 viewBox="150 -149 329 329" style="enable-background:new 150 -149 329 329;" xml:space="preserve">
<style type="text/css">
	.st0{fill:#3F4951;}
</style>
<path class="st0" d="M344.6,15.8l128.1-128.1c8.3-8.3,8.3-21.8,0-30.1c-8.3-8.3-21.8-8.3-30.1,0L314.5-14.4L186.4-142.5
	c-8.3-8.3-21.8-8.3-30.1,0c-8.3,8.3-8.3,21.8,0,30.1L284.4,15.8L156.3,143.9c-8.3,8.3-8.3,21.8,0,30.1c4.2,4.2,9.6,6.2,15.1,6.2
	s10.9-2.1,15.1-6.2L314.5,45.9L442.6,174c4.2,4.2,9.6,6.2,15.1,6.2c5.5,0,10.9-2.1,15.1-6.2c8.3-8.3,8.3-21.8,0-30.1L344.6,15.8z"/>
</svg>
