<svg width="77" height="77" viewBox="0 0 77 77" fill="none" xmlns="http://www.w3.org/2000/svg">
<path d="M0 38.5L19.25 5.15802H57.75L77 38.5L57.75 71.842H19.25L0 38.5Z" fill="#75C3FF"/>
<path d="M43.0865 35C45.9865 35.6 48.2032 36.8 49.7365 38.6C51.3032 40.3667 52.0865 42.5167 52.0865 45.05C52.0865 47.1167 51.5199 49.0333 50.3865 50.8C49.2865 52.5667 47.5865 54 45.2865 55.1C43.0199 56.1667 40.2032 56.7 36.8365 56.7C34.3699 56.7 31.9199 56.4 29.4865 55.8C27.0865 55.2 25.0032 54.35 23.2365 53.25L26.8365 45.8C28.2032 46.7333 29.7365 47.45 31.4365 47.95C33.1699 48.45 34.8699 48.7 36.5365 48.7C38.2365 48.7 39.5865 48.3833 40.5865 47.75C41.5865 47.1167 42.0865 46.2167 42.0865 45.05C42.0865 42.7833 40.3032 41.65 36.7365 41.65H32.5865V35.4L38.8365 28.65H25.0365V21H50.3365V27.2L43.0865 35Z" fill="white"/>
</svg>
