<svg width="77" height="77" viewBox="0 0 77 77" fill="none" xmlns="http://www.w3.org/2000/svg">
<path d="M0 38.5L19.25 5.15802H57.75L77 38.5L57.75 71.842H19.25L0 38.5Z" fill="#75C3FF"/>
<path d="M51.7842 48.15V56H24.5342V49.8L37.6342 37.55C38.9008 36.35 39.7508 35.3333 40.1842 34.5C40.6175 33.6333 40.8342 32.7667 40.8342 31.9C40.8342 30.7667 40.4508 29.8833 39.6842 29.25C38.9175 28.6167 37.8008 28.3 36.3342 28.3C35.0342 28.3 33.8342 28.6 32.7342 29.2C31.6675 29.7667 30.7842 30.6 30.0842 31.7L22.7342 27.6C24.1008 25.3333 26.0175 23.55 28.4842 22.25C30.9508 20.95 33.8675 20.3 37.2342 20.3C39.9008 20.3 42.2508 20.7333 44.2842 21.6C46.3508 22.4667 47.9508 23.7167 49.0842 25.35C50.2508 26.95 50.8342 28.8167 50.8342 30.95C50.8342 32.85 50.4175 34.65 49.5842 36.35C48.7842 38.0167 47.2175 39.9167 44.8842 42.05L38.2842 48.15H51.7842Z" fill="white"/>
</svg>
