<svg width="37" height="37" viewBox="0 0 37 37" fill="none" xmlns="http://www.w3.org/2000/svg">
<circle cx="18.5" cy="18.5" r="18.5" fill="#FFDB5A"/>
<path d="M26 17.999H28C28 12.869 24.127 9 18.99 9V11C23.052 11 26 13.943 26 17.999Z" fill="#3F4951"/>
<path d="M19 15C21.103 15 22 15.897 22 18H24C24 14.775 22.225 13 19 13V15ZM22.422 20.443C22.2299 20.2683 21.9774 20.1752 21.7178 20.1832C21.4583 20.1912 21.212 20.2998 21.031 20.486L18.638 22.947C18.062 22.837 16.904 22.476 15.712 21.287C14.52 20.094 14.159 18.933 14.052 18.361L16.511 15.967C16.6974 15.7861 16.8061 15.5398 16.8142 15.2802C16.8222 15.0206 16.7289 14.768 16.554 14.576L12.859 10.513C12.6841 10.3204 12.4409 10.2035 12.1812 10.1873C11.9214 10.171 11.6656 10.2567 11.468 10.426L9.29801 12.287C9.12512 12.4605 9.02193 12.6914 9.00801 12.936C8.99301 13.186 8.70701 19.108 13.299 23.702C17.305 27.707 22.323 28 23.705 28C23.907 28 24.031 27.994 24.064 27.992C24.3085 27.9783 24.5393 27.8747 24.712 27.701L26.572 25.53C26.7415 25.3325 26.8273 25.0768 26.8112 24.817C26.7952 24.5573 26.6785 24.3141 26.486 24.139L22.422 20.443Z" fill="#3F4951"/>
</svg>
