<svg width="101" height="121" viewBox="0 0 101 121" fill="none" xmlns="http://www.w3.org/2000/svg">
<path d="M88.5201 120.251H84.4989C81.1678 120.251 78.467 117.559 78.467 114.239V108.226H76.4564V110.23C76.4495 115.763 71.9532 120.245 66.4034 120.251H10.1062C4.55636 120.245 0.0599728 115.763 0.0531006 110.23V10.0209C0.0599728 4.48888 4.55636 0.00685027 10.1062 0H66.4034C71.9532 0.00685027 76.4495 4.48888 76.4564 10.0209V98.2053H78.467V6.01257C78.467 2.69215 81.1678 0 84.4989 0H88.5201C91.8512 0 94.5519 2.69215 94.5519 6.01257V114.239C94.5519 117.559 91.8512 120.251 88.5201 120.251ZM74.4458 104.218H80.4776C81.588 104.218 82.4883 105.115 82.4883 106.222V114.239C82.4883 115.346 83.3885 116.243 84.4989 116.243H88.5201C89.6305 116.243 90.5307 115.346 90.5307 114.239V6.01257C90.5307 4.90576 89.6305 4.00838 88.5201 4.00838H84.4989C83.3885 4.00838 82.4883 4.90576 82.4883 6.01257V100.209C82.4883 101.316 81.588 102.214 80.4776 102.214H74.4458C73.3355 102.214 72.4352 101.316 72.4352 100.209V10.0209C72.4352 6.70053 69.7344 4.00838 66.4034 4.00838H10.1062C6.77511 4.00838 4.07433 6.70053 4.07433 10.0209V110.23C4.07433 113.551 6.77511 116.243 10.1062 116.243H66.4034C69.7344 116.243 72.4352 113.551 72.4352 110.23V106.222C72.4352 105.115 73.3355 104.218 74.4458 104.218ZM64.3927 114.239H12.1168C8.78572 114.239 6.08494 111.547 6.08494 108.226V12.0251C6.08494 8.70472 8.78572 6.01257 12.1168 6.01257H64.3927C67.7238 6.01257 70.4246 8.70472 70.4246 12.0251V108.226C70.4246 111.547 67.7238 114.239 64.3927 114.239ZM12.1168 10.0209C11.0064 10.0209 10.1062 10.9183 10.1062 12.0251V108.226C10.1062 109.333 11.0064 110.23 12.1168 110.23H64.3927C65.5031 110.23 66.4034 109.333 66.4034 108.226V12.0251C66.4034 10.9183 65.5031 10.0209 64.3927 10.0209H12.1168Z" fill="#005EA7"/>
<path d="M64.3928 114.239H12.1168C8.78574 114.239 6.08496 111.547 6.08496 108.226V12.0251C6.08496 8.70472 8.78574 6.01257 12.1168 6.01257H64.3928C67.7238 6.01257 70.4246 8.70472 70.4246 12.0251V108.226C70.4246 111.547 67.7238 114.239 64.3928 114.239ZM12.1168 10.021C11.0064 10.021 10.1062 10.9183 10.1062 12.0251V108.226C10.1062 109.333 11.0064 110.23 12.1168 110.23H64.3928C65.5031 110.23 66.4034 109.333 66.4034 108.226V12.0251C66.4034 10.9183 65.5031 10.021 64.3928 10.021H12.1168Z" fill="#005EA7"/>
<path d="M64.3928 114.239H12.1168C8.78574 114.239 6.08496 111.547 6.08496 108.226V12.0251C6.08496 8.70472 8.78574 6.01257 12.1168 6.01257H64.3928C67.7238 6.01257 70.4246 8.70472 70.4246 12.0251V108.226C70.4246 111.547 67.7238 114.239 64.3928 114.239ZM12.1168 10.021C11.0064 10.021 10.1062 10.9183 10.1062 12.0251V108.226C10.1062 109.333 11.0064 110.23 12.1168 110.23H64.3928C65.5031 110.23 66.4034 109.333 66.4034 108.226V12.0251C66.4034 10.9183 65.5031 10.021 64.3928 10.021H12.1168Z" fill="#005EA7"/>
<path d="M92.5414 72.1508C91.431 72.1508 90.5308 71.2534 90.5308 70.1466V50.1047C90.5308 49.4608 90.842 48.856 91.3662 48.4803C91.8905 48.1035 92.564 48.0017 93.1766 48.2043L99.2084 50.2085C100.029 50.4815 100.583 51.2468 100.584 52.1089V68.1424C100.583 69.0046 100.029 69.7699 99.2084 70.0429L93.1766 72.0471C92.9724 72.1156 92.7574 72.1508 92.5414 72.1508ZM94.552 52.8869V67.3645L96.5626 66.697V53.5543L94.552 52.8869Z" fill="#005EA7"/>
<path d="M68.414 80.1676H8.09557C6.98522 80.1676 6.08496 79.2702 6.08496 78.1634C6.08496 77.0566 6.98522 76.1592 8.09557 76.1592H68.414C69.5243 76.1592 70.4246 77.0566 70.4246 78.1634C70.4246 79.2702 69.5243 80.1676 68.414 80.1676Z" fill="#005EA7"/>
<path d="M68.414 46.0964H8.09557C6.98522 46.0964 6.08496 45.199 6.08496 44.0922C6.08496 42.9854 6.98522 42.088 8.09557 42.088H68.414C69.5243 42.088 70.4246 42.9854 70.4246 44.0922C70.4246 45.199 69.5243 46.0964 68.414 46.0964Z" fill="#005EA7"/>
<path d="M22.1699 18.0377H16.1381C15.0277 18.0377 14.1274 17.1403 14.1274 16.0335C14.1274 14.9267 15.0277 14.0293 16.1381 14.0293H22.1699C23.2802 14.0293 24.1805 14.9267 24.1805 16.0335C24.1805 17.1403 23.2802 18.0377 22.1699 18.0377Z" fill="#005EA7"/>
<path d="M54.3397 76.1592H46.2973C45.2606 76.1641 44.3907 75.3831 44.2867 74.3556L42.2761 54.3137C42.2191 53.7481 42.4056 53.1854 42.7885 52.7646C43.1724 52.3448 43.7163 52.106 44.2867 52.1089H56.3504C56.9188 52.1089 57.4607 52.3487 57.8416 52.7685C58.2225 53.1883 58.4081 53.75 58.3512 54.3137L56.3405 74.3556C56.2375 75.3792 55.3725 76.1592 54.3397 76.1592ZM48.1165 72.1508H52.5304L54.1385 56.1173H46.5182L48.1165 72.1508Z" fill="#005EA7"/>
<path d="M36.2442 56.1173H20.1593C19.0489 56.1173 18.1487 55.2199 18.1487 54.1131C18.1487 53.0063 19.0489 52.1089 20.1593 52.1089H36.2442C37.3546 52.1089 38.2548 53.0063 38.2548 54.1131C38.2548 55.2199 37.3546 56.1173 36.2442 56.1173Z" fill="#005EA7"/>
<path d="M32.2229 76.1592H24.1805C23.1437 76.1641 22.2739 75.3831 22.1698 74.3556L20.1592 54.3137C20.1023 53.7481 20.2888 53.1854 20.6717 52.7646C21.0556 52.3448 21.5995 52.106 22.1698 52.1089H34.2335C34.8039 52.106 35.3478 52.3448 35.7317 52.7646C36.1145 53.1854 36.3011 53.7481 36.2441 54.3137L34.2335 74.3556C34.1295 75.3831 33.2596 76.1641 32.2229 76.1592ZM25.9996 72.1508H30.4136L32.0216 56.1173H24.4014L25.9996 72.1508Z" fill="#005EA7"/>
<path d="M60.3715 28.0586C59.2611 28.0586 58.3609 27.1612 58.3609 26.0544V20.0419C58.3609 18.9351 57.4606 18.0377 56.3502 18.0377H30.2123C29.1019 18.0377 28.2017 17.1403 28.2017 16.0335C28.2017 14.9267 29.1019 14.0293 30.2123 14.0293H56.3502C59.6813 14.0293 62.3821 16.7214 62.3821 20.0419V26.0544C62.3821 27.1612 61.4818 28.0586 60.3715 28.0586Z" fill="#005EA7"/>
</svg>
