<svg width="122" height="101" viewBox="0 0 122 101" fill="none" xmlns="http://www.w3.org/2000/svg">
<path d="M115.527 92.2137H6.95347C3.62241 92.2137 0.921631 89.5215 0.921631 86.2011V14.0503C0.921631 10.7298 3.62241 8.03769 6.95347 8.03769H115.527C118.858 8.03769 121.558 10.7298 121.558 14.0503V86.2011C121.558 89.5215 118.858 92.2137 115.527 92.2137ZM6.95347 12.0461C5.84312 12.0461 4.94286 12.9435 4.94286 14.0503V86.2011C4.94286 87.3079 5.84312 88.2053 6.95347 88.2053H115.527C116.637 88.2053 117.537 87.3079 117.537 86.2011V14.0503C117.537 12.9435 116.637 12.0461 115.527 12.0461H6.95347Z" fill="#005EA7"/>
<path d="M111.505 80.1885H39.1233C38.0129 80.1885 37.1127 79.2911 37.1127 78.1843V22.067C37.1127 20.9602 38.0129 20.0628 39.1233 20.0628H111.505C112.616 20.0628 113.516 20.9602 113.516 22.067V78.1843C113.516 79.2911 112.616 80.1885 111.505 80.1885ZM41.1339 76.1801H109.495V24.0712H41.1339V76.1801Z" fill="#005EA7"/>
<path d="M31.0809 36.0964H10.9747C9.86437 36.0964 8.96411 35.199 8.96411 34.0922V22.067C8.96411 20.9602 9.86437 20.0628 10.9747 20.0628H31.0809C32.1912 20.0628 33.0915 20.9602 33.0915 22.067V34.0922C33.0915 35.199 32.1912 36.0964 31.0809 36.0964ZM12.9853 32.088H29.0702V24.0712H12.9853V32.088Z" fill="#005EA7"/>
<path d="M12.9853 42.1089H17.0066C18.1169 42.1089 19.0172 43.0063 19.0172 44.1131V48.1215C19.0172 49.2283 18.1169 50.1257 17.0066 50.1257H12.9853C11.875 50.1257 10.9747 49.2283 10.9747 48.1215V44.1131C10.9747 43.0063 11.875 42.1089 12.9853 42.1089Z" fill="#005EA7"/>
<path d="M25.0489 42.1089H29.0702C30.1805 42.1089 31.0808 43.0063 31.0808 44.1131V48.1215C31.0808 49.2283 30.1805 50.1257 29.0702 50.1257H25.0489C23.9386 50.1257 23.0383 49.2283 23.0383 48.1215V44.1131C23.0383 43.0063 23.9386 42.1089 25.0489 42.1089Z" fill="#005EA7"/>
<path d="M12.9853 54.1341H17.0066C18.1169 54.1341 19.0172 55.0314 19.0172 56.1383V60.1466C19.0172 61.2534 18.1169 62.1508 17.0066 62.1508H12.9853C11.875 62.1508 10.9747 61.2534 10.9747 60.1466V56.1383C10.9747 55.0314 11.875 54.1341 12.9853 54.1341Z" fill="#005EA7"/>
<path d="M25.0489 54.1341H29.0702C30.1805 54.1341 31.0808 55.0314 31.0808 56.1383V60.1466C31.0808 61.2534 30.1805 62.1508 29.0702 62.1508H25.0489C23.9386 62.1508 23.0383 61.2534 23.0383 60.1466V56.1383C23.0383 55.0314 23.9386 54.1341 25.0489 54.1341Z" fill="#005EA7"/>
<path d="M25.0489 66.1592H29.0702C30.1805 66.1592 31.0808 67.0566 31.0808 68.1634V72.1718C31.0808 73.2786 30.1805 74.1759 29.0702 74.1759H25.0489C23.9386 74.1759 23.0383 73.2786 23.0383 72.1718V68.1634C23.0383 67.0566 23.9386 66.1592 25.0489 66.1592Z" fill="#005EA7"/>
<path d="M12.9853 66.1592H17.0066C18.1169 66.1592 19.0172 67.0566 19.0172 68.1634V72.1718C19.0172 73.2786 18.1169 74.1759 17.0066 74.1759H12.9853C11.875 74.1759 10.9747 73.2786 10.9747 72.1718V68.1634C10.9747 67.0566 11.875 66.1592 12.9853 66.1592Z" fill="#005EA7"/>
<path d="M109.495 12.0461H12.9853C11.875 12.0461 10.9747 11.1487 10.9747 10.0419C10.9816 4.50981 15.478 0.0277853 21.0278 0.0209351H101.452C107.002 0.0277853 111.499 4.50981 111.505 10.0419C111.505 11.1487 110.605 12.0461 109.495 12.0461ZM15.3396 8.0377H107.141C106.285 5.63717 104.008 4.03225 101.452 4.02932H21.0278C18.4723 4.03225 16.1947 5.63717 15.3396 8.0377Z" fill="#005EA7"/>
<path d="M27.0596 100.23H14.996C13.8856 100.23 12.9854 99.333 12.9854 98.2262V90.2095C12.9854 89.1026 13.8856 88.2053 14.996 88.2053H27.0596C28.17 88.2053 29.0703 89.1026 29.0703 90.2095V98.2262C29.0703 99.333 28.17 100.23 27.0596 100.23ZM17.0066 96.222H25.049V92.2136H17.0066V96.222Z" fill="#005EA7"/>
<path d="M107.484 100.23H95.4205C94.3102 100.23 93.4099 99.333 93.4099 98.2262V90.2095C93.4099 89.1026 94.3102 88.2053 95.4205 88.2053H107.484C108.595 88.2053 109.495 89.1026 109.495 90.2095V98.2262C109.495 99.333 108.595 100.23 107.484 100.23ZM97.4311 96.222H105.474V92.2136H97.4311V96.222Z" fill="#005EA7"/>
<path d="M63.2507 70.1676C62.1403 70.1676 61.24 69.2702 61.24 68.1634C61.2037 65.5946 62.0303 63.0874 63.5884 61.0401C65.8189 58.1532 65.8189 54.1302 63.5884 51.2423C60.4605 47.003 60.4605 41.2292 63.5884 36.9898C64.7066 35.6022 65.2986 33.8671 65.2613 32.088C65.2613 30.9812 66.1615 30.0838 67.2719 30.0838C68.3822 30.0838 69.2825 30.9812 69.2825 32.088C69.3198 34.6588 68.4932 37.167 66.9342 39.2152C64.7036 42.104 64.7036 46.1281 66.9342 49.0169C70.065 53.2543 70.065 59.0291 66.9342 63.2655C65.8169 64.6512 65.2249 66.3853 65.2613 68.1634C65.2613 69.2702 64.361 70.1676 63.2507 70.1676Z" fill="#005EA7"/>
<path d="M79.3356 70.1676C78.2252 70.1676 77.3249 69.2702 77.3249 68.1634C77.2876 65.5926 78.1143 63.0844 79.6733 61.0362C81.9038 58.1474 81.9038 54.1233 79.6733 51.2345C76.5425 46.9971 76.5425 41.2223 79.6733 36.9859C80.7905 35.6002 81.3825 33.8661 81.3462 32.088C81.3462 30.9812 82.2464 30.0838 83.3568 30.0838C84.4671 30.0838 85.3674 30.9812 85.3674 32.088C85.4037 34.6568 84.5771 37.164 83.0191 39.2113C80.7885 42.0982 80.7885 46.1212 83.0191 49.0091C86.1469 53.2484 86.1469 59.0222 83.0191 63.2616C81.9009 64.6492 81.3089 66.3843 81.3462 68.1634C81.3462 69.2702 80.4459 70.1676 79.3356 70.1676Z" fill="#005EA7"/>
</svg>
