<svg width="121" height="121" viewBox="0 0 121 121" fill="none" xmlns="http://www.w3.org/2000/svg">
<path d="M100.531 40.7984V36.0649C100.531 34.9571 99.6304 34.0607 98.5201 34.0607H96.2542C94.1218 13.9288 76.5525 -1.01557 56.2726 0.052092C35.9927 1.11975 20.1002 17.8256 20.1061 38.0691V58.111C18.9958 58.111 18.0955 59.0074 18.0955 60.1152V90.546C15.6942 91.3925 14.0851 93.6511 14.0743 96.1906V100.199H10.0531C4.50326 100.205 0.00687223 104.688 0 110.22V118.237C0 119.343 0.90026 120.241 2.01061 120.241H50.2653C51.3757 120.241 52.2759 119.343 52.2759 118.237V110.22C52.2691 104.688 47.7727 100.205 42.2229 100.199H38.2017V96.1906C38.1909 93.6511 36.5818 91.3925 34.1804 90.546V60.1152C34.1804 59.0074 33.2802 58.111 32.1698 58.111V38.0691C32.1571 24.4566 42.6637 13.1302 56.2795 12.0802C69.8943 11.0291 82.0248 20.6078 84.1139 34.0607H82.4352C81.3248 34.0607 80.4245 34.9571 80.4245 36.0649V40.7984C68.621 43.5414 60.2831 54.0468 60.3184 66.1277V114.228C60.3184 117.549 63.0192 120.241 66.3502 120.241H114.605C117.936 120.241 120.637 117.549 120.637 114.228V66.1277C120.672 54.0468 112.334 43.5414 100.531 40.7984ZM96.5094 38.0691V40.1525C95.836 40.0987 85.1192 40.0987 84.4458 40.1525V38.0691H96.5094ZM30.1592 90.178H22.1167V62.1194H30.1592V90.178ZM48.2547 110.22V116.232H44.2335V112.224C44.2335 111.116 43.3332 110.22 42.2229 110.22C41.1125 110.22 40.2123 111.116 40.2123 112.224V116.232H36.191V112.224C36.191 111.116 35.2908 110.22 34.1804 110.22C33.0701 110.22 32.1698 111.116 32.1698 112.224V116.232H28.1486V112.224C28.1486 111.116 27.2483 110.22 26.138 110.22C25.0276 110.22 24.1274 111.116 24.1274 112.224V116.232H20.1061V112.224C20.1061 111.116 19.2059 110.22 18.0955 110.22C16.9852 110.22 16.0849 111.116 16.0849 112.224V116.232H12.0637V112.224C12.0637 111.116 11.1634 110.22 10.0531 110.22C8.94271 110.22 8.04245 111.116 8.04245 112.224V116.232H4.02123V110.22C4.02123 106.899 6.72201 104.207 10.0531 104.207H42.2229C45.5539 104.207 48.2547 106.899 48.2547 110.22ZM18.0955 100.199V96.1906C18.0955 95.0828 18.9958 94.1864 20.1061 94.1864H32.1698C33.2802 94.1864 34.1804 95.0828 34.1804 96.1906V100.199H18.0955ZM58.3078 8.00622C41.6594 8.02481 28.1672 21.4729 28.1486 38.0691V58.111H24.1274V38.0691C24.1362 20.0372 38.236 5.13498 56.2933 4.07222C74.3515 3.00945 90.1124 16.1551 92.2487 34.0607H88.1911C86.1422 19.1624 73.3933 8.04732 58.3078 8.00622ZM116.616 114.228C116.616 115.335 115.715 116.232 114.605 116.232H66.3502C65.2399 116.232 64.3396 115.335 64.3396 114.228V66.1277C64.3553 53.9578 74.2484 44.0963 86.4564 44.0816H94.4988C106.708 44.0944 116.602 53.9568 116.616 66.1277V114.228Z" fill="#005EA7"/>
<path d="M110.584 112.225H70.3715C69.2611 112.225 68.3608 111.327 68.3608 110.221V94.1871C68.3608 93.0794 69.2611 92.183 70.3715 92.183H110.584C111.694 92.183 112.594 93.0794 112.594 94.1871V110.221C112.594 111.327 111.694 112.225 110.584 112.225ZM72.3821 108.216H108.573V96.1913H72.3821V108.216Z" fill="#005EA7"/>
<path d="M100.531 62.1201H80.4246C79.3142 62.1201 78.4139 61.2227 78.4139 60.1159C78.4139 59.0081 79.3142 58.1117 80.4246 58.1117H100.531C101.641 58.1117 102.541 59.0081 102.541 60.1159C102.541 61.2227 101.641 62.1201 100.531 62.1201Z" fill="#005EA7"/>
<path d="M94.4989 56.1075H86.4564C85.3461 56.1075 84.4458 55.2101 84.4458 54.1033C84.4458 52.9956 85.3461 52.0992 86.4564 52.0992H94.4989C95.6092 52.0992 96.5095 52.9956 96.5095 54.1033C96.5095 55.2101 95.6092 56.1075 94.4989 56.1075Z" fill="#005EA7"/>
<path d="M100.531 68.1327H80.4246C79.3142 68.1327 78.4139 67.2353 78.4139 66.1285C78.4139 65.0207 79.3142 64.1243 80.4246 64.1243H100.531C101.641 64.1243 102.541 65.0207 102.541 66.1285C102.541 67.2353 101.641 68.1327 100.531 68.1327Z" fill="#005EA7"/>
<path d="M82.4352 108.216C79.1041 108.216 76.4033 105.524 76.4033 102.204C76.4033 98.8825 79.1041 96.1913 82.4352 96.1913C85.7662 96.1913 88.467 98.8825 88.467 102.204C88.467 105.524 85.7662 108.216 82.4352 108.216ZM82.4352 100.2C81.3248 100.2 80.4246 101.096 80.4246 102.204C80.4246 103.311 81.3248 104.208 82.4352 104.208C83.5455 104.208 84.4458 103.311 84.4458 102.204C84.4458 101.096 83.5455 100.2 82.4352 100.2Z" fill="#005EA7"/>
<path d="M98.5201 108.216C95.1891 108.216 92.4883 105.524 92.4883 102.204C92.4883 98.8825 95.1891 96.1913 98.5201 96.1913C101.851 96.1913 104.552 98.8825 104.552 102.204C104.552 105.524 101.851 108.216 98.5201 108.216ZM98.5201 100.2C97.4098 100.2 96.5095 101.096 96.5095 102.204C96.5095 103.311 97.4098 104.208 98.5201 104.208C99.6305 104.208 100.531 103.311 100.531 102.204C100.531 101.096 99.6305 100.2 98.5201 100.2Z" fill="#005EA7"/>
<path d="M94.4989 74.1452H86.4564C85.3461 74.1452 84.4458 73.2479 84.4458 72.1411C84.4458 71.0333 85.3461 70.1369 86.4564 70.1369H94.4989C95.6092 70.1369 96.5095 71.0333 96.5095 72.1411C96.5095 73.2479 95.6092 74.1452 94.4989 74.1452Z" fill="#005EA7"/>
</svg>
