<svg width="102" height="121" viewBox="0 0 102 121" fill="none" xmlns="http://www.w3.org/2000/svg">
<path d="M51.1723 102.214C34.516 102.214 21.0131 88.7539 21.0131 72.1509C21.0131 55.5478 34.516 42.088 51.1723 42.088C67.8285 42.088 81.3314 55.5478 81.3314 72.1509C81.3128 88.7461 67.8207 102.195 51.1723 102.214ZM51.1723 46.0964C36.7367 46.0964 25.0343 57.7614 25.0343 72.1509C25.0343 86.5403 36.7367 98.2053 51.1723 98.2053C65.6078 98.2053 77.3102 86.5403 77.3102 72.1509C77.2935 57.7683 65.601 46.113 51.1723 46.0964Z" fill="#005EA7"/>
<path d="M95.4058 0H6.93882C3.60776 0 0.906982 2.69215 0.906982 6.01257V114.239C0.906982 117.559 3.60776 120.251 6.93882 120.251H95.4058C98.7369 120.251 101.438 117.559 101.438 114.239V6.01257C101.438 2.69215 98.7369 0 95.4058 0ZM97.4164 6.01257V24.0503H53.1829V4.00838H95.4058C96.5162 4.00838 97.4164 4.90576 97.4164 6.01257ZM4.92821 6.01257C4.92821 4.90576 5.82847 4.00838 6.93882 4.00838H49.1617V24.0503H4.92821V6.01257ZM95.4058 116.243H6.93882C5.82847 116.243 4.92821 115.346 4.92821 114.239V28.0587H97.4164V114.239C97.4164 115.346 96.5162 116.243 95.4058 116.243Z" fill="#005EA7"/>
<path d="M81.3316 20.0419V8.01678H57.2042V20.0419H81.3316ZM61.2254 12.0252H77.3103V16.0335H61.2254V12.0252Z" fill="#005EA7"/>
<path d="M19.0025 8.01678H14.9813C13.871 8.01678 12.9707 8.91417 12.9707 10.021C12.9707 11.1278 13.871 12.0252 14.9813 12.0252H19.0025C20.1129 12.0252 21.0132 11.1278 21.0132 10.021C21.0132 8.91417 20.1129 8.01678 19.0025 8.01678Z" fill="#005EA7"/>
<path d="M19.0025 16.0335H14.9813C13.871 16.0335 12.9707 16.9309 12.9707 18.0377C12.9707 19.1445 13.871 20.0419 14.9813 20.0419H19.0025C20.1129 20.0419 21.0132 19.1445 21.0132 18.0377C21.0132 16.9309 20.1129 16.0335 19.0025 16.0335Z" fill="#005EA7"/>
<path d="M31.0661 8.01678H27.0449C25.9346 8.01678 25.0343 8.91417 25.0343 10.021C25.0343 11.1278 25.9346 12.0252 27.0449 12.0252H31.0661C32.1765 12.0252 33.0768 11.1278 33.0768 10.021C33.0768 8.91417 32.1765 8.01678 31.0661 8.01678Z" fill="#005EA7"/>
<path d="M31.0661 16.0335H27.0449C25.9346 16.0335 25.0343 16.9309 25.0343 18.0377C25.0343 19.1445 25.9346 20.0419 27.0449 20.0419H31.0661C32.1765 20.0419 33.0768 19.1445 33.0768 18.0377C33.0768 16.9309 32.1765 16.0335 31.0661 16.0335Z" fill="#005EA7"/>
<path d="M39.1086 12.0252H43.1299C44.2402 12.0252 45.1405 11.1278 45.1405 10.021C45.1405 8.91417 44.2402 8.01678 43.1299 8.01678H39.1086C37.9983 8.01678 37.098 8.91417 37.098 10.021C37.098 11.1278 37.9983 12.0252 39.1086 12.0252Z" fill="#005EA7"/>
<path d="M43.1299 16.0335H39.1086C37.9983 16.0335 37.098 16.9309 37.098 18.0377C37.098 19.1445 37.9983 20.0419 39.1086 20.0419H43.1299C44.2402 20.0419 45.1405 19.1445 45.1405 18.0377C45.1405 16.9309 44.2402 16.0335 43.1299 16.0335Z" fill="#005EA7"/>
<path d="M51.1724 34.0712C30.0737 34.0712 12.9707 51.1196 12.9707 72.1508C12.9707 93.1821 30.0737 110.23 51.1724 110.23C72.271 110.23 89.374 93.1821 89.374 72.1508C89.3505 51.1294 72.2612 34.0947 51.1724 34.0712ZM51.1724 106.222C32.2954 106.222 16.9919 90.9675 16.9919 72.1508C16.9919 53.3342 32.2954 38.0796 51.1724 38.0796C70.0494 38.0796 85.3528 53.3342 85.3528 72.1508C85.3322 90.9587 70.0405 106.202 51.1724 106.222Z" fill="#005EA7"/>
<path d="M39.6457 86.0363C38.9281 86.0353 38.2644 85.6527 37.9061 85.0332C37.5468 84.4128 37.5477 83.6495 37.9061 83.03L53.991 55.2591C54.3483 54.6347 55.013 54.2472 55.7346 54.2462C56.4561 54.2443 57.1237 54.6279 57.483 55.2522C57.8424 55.8756 57.8384 56.6428 57.4732 57.2633L41.3883 85.0342C41.029 85.6547 40.3644 86.0363 39.6457 86.0363Z" fill="#005EA7"/>
<path d="M46.6102 90.0447C45.8926 90.0437 45.2289 89.6611 44.8706 89.0416C44.5122 88.4212 44.5122 87.6578 44.8715 87.0384L60.9564 59.2674C61.3128 58.6431 61.9784 58.2556 62.699 58.2546C63.4206 58.2526 64.0882 58.6362 64.4475 59.2606C64.8068 59.884 64.8029 60.6512 64.4387 61.2716L48.3538 89.0426C47.9945 89.663 47.3288 90.0447 46.6102 90.0447Z" fill="#005EA7"/>
</svg>
