<svg width="124" height="121" viewBox="0 0 124 121" fill="none" xmlns="http://www.w3.org/2000/svg">
<g clip-path="url(#clip0)">
<path d="M3.91357 118.247H120.529V22.0461H3.91357V118.247ZM11.956 103.757V34.0712C11.956 31.8576 13.7565 30.0628 15.9773 30.0628H108.465C110.686 30.0628 112.487 31.8576 112.487 34.0712V106.222C112.487 108.436 110.686 110.23 108.465 110.23H15.9773C13.7565 110.23 11.956 108.436 11.956 106.222V103.757Z" fill="white" fill-opacity="0.2"/>
<path d="M3.91406 2.00418V22.0461H120.53V2.00418H3.91406ZM13.9671 16.0335C11.7464 16.0335 9.9459 14.2387 9.9459 12.0251C9.9459 9.81152 11.7464 8.01675 13.9671 8.01675C16.1878 8.01675 17.9884 9.81152 17.9884 12.0251C17.9884 14.2387 16.1878 16.0335 13.9671 16.0335ZM70.2643 16.0335C68.0436 16.0335 66.2431 14.2387 66.2431 12.0251C66.2431 9.81152 68.0436 8.01675 70.2643 8.01675C72.485 8.01675 74.2855 9.81152 74.2855 12.0251C74.2855 14.2387 72.485 16.0335 70.2643 16.0335Z" fill="white" fill-opacity="0.2"/>
<path d="M15.9773 110.23H108.466C110.686 110.23 112.487 108.436 112.487 106.222V103.757C112.487 103.757 13.9667 104.218 11.9561 103.757V106.222C11.9561 108.436 13.7566 110.23 15.9773 110.23Z" fill="white" fill-opacity="0.2"/>
<path d="M19.9985 76.1592V92.1927C19.9985 96.62 23.5996 100.209 28.041 100.209V68.1425C23.5996 68.1425 19.9985 71.732 19.9985 76.1592Z" fill="white" fill-opacity="0.2"/>
<path d="M30.0516 76.1592V92.1927C30.0516 96.62 33.6527 100.209 38.0941 100.209V68.1425C33.6527 68.1425 30.0516 71.732 30.0516 76.1592Z" fill="white" fill-opacity="0.2"/>
<path d="M40.1046 76.1592V92.1927C40.1046 96.62 43.7057 100.209 48.1471 100.209V68.1425C43.7057 68.1425 40.1046 71.732 40.1046 76.1592Z" fill="white" fill-opacity="0.2"/>
<path d="M48.1471 76.1592V92.1927C48.1471 96.62 51.7481 100.209 56.1895 100.209V68.1425C51.7481 68.1425 48.1471 71.732 48.1471 76.1592Z" fill="white" fill-opacity="0.2"/>
<path d="M88.3594 68.1425C79.4922 68.1532 72.3108 75.3235 72.3147 84.1623C72.3186 93.0011 79.506 100.165 88.3731 100.169C97.2402 100.173 104.433 93.0148 104.444 84.176C104.444 75.3205 97.2432 68.1425 88.3594 68.1425Z" fill="white" fill-opacity="0.2"/>
<path d="M78.3062 42.088H74.285C72.0643 42.088 70.2638 43.8827 70.2638 46.0964V58.1215H82.3275V46.0964C82.3275 43.8827 80.527 42.088 78.3062 42.088Z" fill="white" fill-opacity="0.2"/>
<path d="M101.428 50.1047L100.423 42.088H92.3806L90.37 58.1215H102.434L101.428 50.1047Z" fill="white" fill-opacity="0.2"/>
<path d="M19.9985 46.0963V50.1047C19.9985 54.532 23.5996 58.1215 28.041 58.1215V38.0796C23.5996 38.0796 19.9985 41.6691 19.9985 46.0963Z" fill="white" fill-opacity="0.2"/>
<path d="M32.0621 46.0963V50.1047C32.0621 54.532 35.6632 58.1215 40.1046 58.1215V38.0796C35.6632 38.0796 32.0621 41.6691 32.0621 46.0963Z" fill="white" fill-opacity="0.2"/>
<path d="M44.1259 46.0963V50.1047C44.1259 54.532 47.7269 58.1215 52.1683 58.1215V38.0796C47.7269 38.0796 44.1259 41.6691 44.1259 46.0963Z" fill="white" fill-opacity="0.2"/>
<path d="M120.529 0H3.91357C2.80321 0 1.90295 0.897384 1.90295 2.00419V118.247C1.90295 119.354 2.80321 120.251 3.91357 120.251H120.529C121.64 120.251 122.54 119.354 122.54 118.247V2.00419C122.54 0.897384 121.64 0 120.529 0ZM5.92418 4.00838H118.519V20.0419H5.92418V4.00838ZM5.92418 116.243V24.0503H118.519V116.243H5.92418Z" fill="#005EA7"/>
<path d="M108.466 28.0587H15.9773C12.6462 28.0587 9.94543 30.7508 9.94543 34.0712V106.222C9.94543 109.542 12.6462 112.235 15.9773 112.235H108.466C111.797 112.235 114.497 109.542 114.497 106.222V34.0712C114.497 30.7508 111.797 28.0587 108.466 28.0587ZM18.1891 52.1089C19.1513 56.772 23.2657 60.1198 28.041 60.1257C29.1513 60.1257 30.0516 59.2283 30.0516 58.1215V52.1089H30.2528C31.2149 56.772 35.3294 60.1198 40.1046 60.1257C41.215 60.1257 42.1153 59.2283 42.1153 58.1215V52.1089H42.3165C43.2786 56.772 47.3931 60.1198 52.1683 60.1257C53.2787 60.1257 54.1789 59.2283 54.1789 58.1215V52.1089H68.2532V58.1215C68.2532 59.2283 69.1535 60.1257 70.2638 60.1257H13.9667V52.1089H18.1891ZM50.1577 48.1006H46.1365V46.0964C46.1394 43.549 47.7495 41.2787 50.1577 40.4263V48.1006ZM50.1577 52.1089V55.7748C48.4455 55.1632 47.0996 53.8176 46.4899 52.1089H50.1577ZM38.094 48.1006H34.0728V46.0964C34.0757 43.549 35.6858 41.2787 38.094 40.4263V48.1006ZM38.094 52.1089V55.7748C36.3819 55.1632 35.0359 53.8176 34.4262 52.1089H38.094ZM26.0303 48.1006H22.0091V46.0964C22.0121 43.549 23.6221 41.2787 26.0303 40.4263V48.1006ZM26.0303 52.1089V55.7748C24.3182 55.1632 22.9722 53.8176 22.3625 52.1089H26.0303ZM80.3169 48.1006H72.2745V46.0964C72.2745 44.9896 73.1747 44.0922 74.2851 44.0922H78.3063C79.4167 44.0922 80.3169 44.9896 80.3169 46.0964V48.1006ZM80.3169 52.1089V56.1173H72.2745V52.1089H80.3169ZM99.6534 52.1089L100.156 56.1173H92.6476L93.1503 52.1089H99.6534ZM93.6529 48.1006L94.1556 44.0922H98.6481L99.1507 48.1006H93.6529ZM75.6625 90.1885C72.8331 84.2924 74.4638 77.2298 79.5944 73.1588C84.724 69.0888 91.9948 69.0888 97.1244 73.1588C102.255 77.2298 103.886 84.2924 101.056 90.1885H75.6625ZM98.1807 94.1969C92.7242 99.5411 83.9778 99.5411 78.5213 94.1969H98.1807ZM88.3594 66.1383C82.4797 66.1216 76.9603 68.9615 73.5694 73.7489C70.1775 78.5363 69.3381 84.6702 71.3192 90.1885H58.2002V68.1425C58.2002 67.0356 57.2999 66.1383 56.1895 66.1383C54.0071 66.1461 51.8875 66.8683 50.1577 68.1943V68.1425C50.1577 67.0356 49.2574 66.1383 48.1471 66.1383C44.9702 66.1471 41.9866 67.6571 40.1046 70.2083V68.1425C40.1046 67.0356 39.2044 66.1383 38.094 66.1383C34.9171 66.1471 31.9336 67.6571 30.0516 70.2083V68.1425C30.0516 67.0356 29.1513 66.1383 28.041 66.1383C22.4912 66.1451 17.9948 70.6271 17.9879 76.1592V90.1885H13.9667V64.1341H110.476V90.1885H105.4C107.381 84.6702 106.541 78.5363 103.149 73.7489C99.7584 68.9615 94.239 66.1216 88.3594 66.1383ZM46.1365 76.1592V90.1885H42.1153V76.1592C42.1182 73.6119 43.7283 71.3415 46.1365 70.4892V76.1592ZM36.0834 90.1885H32.0622V76.1592C32.0651 73.6119 33.6752 71.3415 36.0834 70.4892V90.1885ZM26.0303 90.1885H22.0091V76.1592C22.0121 73.6119 23.6221 71.3415 26.0303 70.4892V90.1885ZM26.0303 94.1969V97.8628C24.3182 97.2512 22.9722 95.9056 22.3625 94.1969H26.0303ZM36.0834 94.1969V97.8628C34.3712 97.2512 33.0253 95.9056 32.4156 94.1969H36.0834ZM46.1365 94.1969V97.8628C44.4243 97.2512 43.0783 95.9056 42.4687 94.1969H46.1365ZM50.1577 90.1885V76.1592C50.1607 73.6119 51.7707 71.3415 54.1789 70.4892V90.1885H50.1577ZM54.1789 94.1969V97.8628C52.4668 97.2512 51.1208 95.9056 50.5111 94.1969H54.1789ZM102.434 60.1257C103.01 60.1257 103.559 59.8791 103.941 59.4475C104.323 59.0169 104.499 58.4435 104.429 57.8729L103.706 52.1089H110.476V60.1257H102.434ZM88.862 59.4485C89.2439 59.8791 89.7927 60.1257 90.37 60.1257H82.3275C83.4379 60.1257 84.3381 59.2283 84.3381 58.1215V52.1089H89.0976L88.3751 57.8729C88.3034 58.4435 88.4811 59.0169 88.862 59.4485ZM13.9667 94.1969H18.1891C19.1513 98.86 23.2657 102.208 28.041 102.214C29.1513 102.214 30.0516 101.316 30.0516 100.209V98.1437C31.9336 100.695 34.9171 102.205 38.094 102.214C39.2044 102.214 40.1046 101.316 40.1046 100.209V98.1437C41.9866 100.695 44.9702 102.205 48.1471 102.214C49.2574 102.214 50.1577 101.316 50.1577 100.209V100.158C51.8875 101.484 54.0071 102.206 56.1895 102.214C57.2999 102.214 58.2002 101.316 58.2002 100.209V94.1969H73.3239C76.6766 99.2054 82.3187 102.214 88.3594 102.214C94.4 102.214 100.042 99.2054 103.395 94.1969H110.476V102.214H13.9667V94.1969ZM15.9773 32.067H108.466C109.576 32.067 110.476 32.9644 110.476 34.0712V48.1006H103.203L102.418 41.8394C102.292 40.8363 101.437 40.0838 100.423 40.0838H92.3806C91.3665 40.0838 90.5114 40.8363 90.3857 41.8394L89.6003 48.1006H84.3381V46.0964C84.3381 42.7759 81.6374 40.0838 78.3063 40.0838H74.2851C70.954 40.0838 68.2532 42.7759 68.2532 46.0964V48.1006H54.1789V38.0796C54.1789 36.9728 53.2787 36.0754 52.1683 36.0754C46.6185 36.0823 42.1221 40.5643 42.1153 46.0964V38.0796C42.1153 36.9728 41.215 36.0754 40.1046 36.0754C34.5548 36.0823 30.0584 40.5643 30.0516 46.0964V38.0796C30.0516 36.9728 29.1513 36.0754 28.041 36.0754C22.4912 36.0823 17.9948 40.5643 17.9879 46.0964V48.1006H13.9667V34.0712C13.9667 32.9644 14.8669 32.067 15.9773 32.067ZM108.466 108.226H15.9773C14.8669 108.226 13.9667 107.329 13.9667 106.222H110.476C110.476 107.329 109.576 108.226 108.466 108.226Z" fill="#005EA7"/>
<path d="M88.3594 74.155C82.8095 74.1619 78.3131 78.6439 78.3063 84.176C78.3063 85.2828 79.2065 86.1802 80.3169 86.1802C81.4272 86.1802 82.3275 85.2828 82.3275 84.176C82.3275 80.8556 85.0283 78.1634 88.3594 78.1634C89.4697 78.1634 90.37 77.266 90.37 76.1592C90.37 75.0524 89.4697 74.155 88.3594 74.155Z" fill="#005EA7"/>
<path d="M70.2638 6.01257C66.9327 6.01257 64.2319 8.70472 64.2319 12.0251C64.2319 15.3456 66.9327 18.0377 70.2638 18.0377C73.5948 18.0377 76.2956 15.3456 76.2956 12.0251C76.2956 8.70472 73.5948 6.01257 70.2638 6.01257ZM70.2638 14.0293C69.1534 14.0293 68.2532 13.1319 68.2532 12.0251C68.2532 10.9183 69.1534 10.021 70.2638 10.021C71.3741 10.021 72.2744 10.9183 72.2744 12.0251C72.2744 13.1319 71.3741 14.0293 70.2638 14.0293Z" fill="#005EA7"/>
<path d="M94.3912 10.0209H90.37C89.2596 10.0209 88.3594 10.9183 88.3594 12.0251C88.3594 13.1319 89.2596 14.0293 90.37 14.0293H94.3912C95.5016 14.0293 96.4018 13.1319 96.4018 12.0251C96.4018 10.9183 95.5016 10.0209 94.3912 10.0209Z" fill="#005EA7"/>
<path d="M84.3381 10.0209H80.3169C79.2065 10.0209 78.3063 10.9183 78.3063 12.0251C78.3063 13.1319 79.2065 14.0293 80.3169 14.0293H84.3381C85.4485 14.0293 86.3487 13.1319 86.3487 12.0251C86.3487 10.9183 85.4485 10.0209 84.3381 10.0209Z" fill="#005EA7"/>
<path d="M28.0409 10.0209H24.0196C22.9093 10.0209 22.009 10.9183 22.009 12.0251C22.009 13.1319 22.9093 14.0293 24.0196 14.0293H28.0409C29.1512 14.0293 30.0515 13.1319 30.0515 12.0251C30.0515 10.9183 29.1512 10.0209 28.0409 10.0209Z" fill="#005EA7"/>
<path d="M38.094 10.0209H34.0727C32.9624 10.0209 32.0621 10.9183 32.0621 12.0251C32.0621 13.1319 32.9624 14.0293 34.0727 14.0293H38.094C39.2043 14.0293 40.1046 13.1319 40.1046 12.0251C40.1046 10.9183 39.2043 10.0209 38.094 10.0209Z" fill="#005EA7"/>
<path d="M13.9667 6.01257C10.6356 6.01257 7.93481 8.70472 7.93481 12.0251C7.93481 15.3456 10.6356 18.0377 13.9667 18.0377C17.2977 18.0377 19.9985 15.3456 19.9985 12.0251C19.9985 8.70472 17.2977 6.01257 13.9667 6.01257ZM13.9667 14.0293C12.8563 14.0293 11.956 13.1319 11.956 12.0251C11.956 10.9183 12.8563 10.021 13.9667 10.021C15.077 10.021 15.9773 10.9183 15.9773 12.0251C15.9773 13.1319 15.077 14.0293 13.9667 14.0293Z" fill="#005EA7"/>
</g>
<defs>
<clipPath id="clip0">
<rect width="122.749" height="120.251" fill="white" transform="translate(0.902954)"/>
</clipPath>
</defs>
</svg>
