<svg width="102" height="121" viewBox="0 0 102 121" fill="none" xmlns="http://www.w3.org/2000/svg">
<path d="M50.7415 92.1927C39.6419 92.181 30.6472 83.215 30.6354 72.1509C30.6354 71.0441 31.5356 70.1467 32.646 70.1467C33.7563 70.1467 34.6566 71.0441 34.6566 72.1509C34.6664 81.0014 41.8626 88.1746 50.7415 88.1844C51.8519 88.1844 52.7521 89.0818 52.7521 90.1886C52.7521 91.2954 51.8519 92.1927 50.7415 92.1927Z" fill="#005EA7"/>
<path d="M50.7415 92.1927C39.6419 92.181 30.6472 83.215 30.6354 72.1509C30.6354 71.0441 31.5356 70.1467 32.646 70.1467C33.7563 70.1467 34.6566 71.0441 34.6566 72.1509C34.6664 81.0014 41.8626 88.1746 50.7415 88.1844C51.8519 88.1844 52.7521 89.0818 52.7521 90.1886C52.7521 91.2954 51.8519 92.1927 50.7415 92.1927Z" fill="#005EA7"/>
<path d="M50.7415 92.1927C39.6419 92.181 30.6472 83.215 30.6354 72.1509C30.6354 71.0441 31.5356 70.1467 32.646 70.1467C33.7563 70.1467 34.6566 71.0441 34.6566 72.1509C34.6664 81.0014 41.8626 88.1746 50.7415 88.1844C51.8519 88.1844 52.7521 89.0818 52.7521 90.1886C52.7521 91.2954 51.8519 92.1927 50.7415 92.1927Z" fill="#005EA7"/>
<path d="M78.6025 68.3166C78.1646 65.0853 77.1623 61.9557 75.6406 59.0698C75.458 58.7243 75.2547 58.3916 75.0603 58.0677C74.9288 57.8426 74.809 57.6107 74.6716 57.3924C74.5557 57.2055 74.4281 57.0313 74.3083 56.8493C74.0747 56.4901 73.8459 56.129 73.5966 55.7846C73.5524 55.7229 73.5013 55.6642 73.4552 55.6025C69.7442 50.5275 64.4271 46.845 58.3619 45.1461C58.1243 45.0806 57.8828 45.0326 57.6442 44.9719C45.5344 41.8394 32.7943 46.981 26.2833 57.6302C19.7724 68.2794 21.0251 81.9222 29.369 91.2161C37.7118 100.509 51.1765 103.259 62.5136 97.9861C73.8518 92.7124 80.3873 80.6608 78.6025 68.3166ZM74.7079 74.84C74.6775 75.1189 74.6274 75.3939 74.5871 75.6699C74.4968 76.2717 74.3859 76.8883 74.2534 77.4881C74.1837 77.7944 74.1071 78.0988 74.0246 78.4002C73.8675 78.9854 73.683 79.5628 73.4797 80.1353C73.3806 80.4083 73.2922 80.6843 73.1842 80.9554C73.142 81.061 73.0851 81.156 73.0409 81.2675C70.3715 78.9854 68.8351 75.6542 68.8351 72.1489C68.8351 68.6425 70.3715 65.3123 73.0409 63.0302C73.0851 63.1339 73.142 63.2298 73.1842 63.3424C73.2922 63.6154 73.3855 63.8914 73.4817 64.1683C73.683 64.7369 73.8675 65.3123 74.0246 65.8955C74.1071 66.1979 74.1837 66.4974 74.2534 66.8115C74.3908 67.4134 74.4968 68.0142 74.5871 68.6278C74.6274 68.9038 74.6775 69.1788 74.7079 69.4567C74.9229 71.2436 74.9229 73.0502 74.7079 74.8361V74.84ZM50.7415 96.2011C39.1403 96.204 29.1795 87.9778 27.0265 76.6143C24.8736 65.2516 31.1381 53.9702 41.9402 49.7554C52.7433 45.5405 65.0259 49.5851 71.1834 59.3858C67.173 62.4127 64.8158 67.1364 64.8158 72.1508C64.8158 77.1652 67.173 81.8889 71.1834 84.9158C66.7813 91.9432 59.053 96.2099 50.7415 96.2011Z" fill="#005EA7"/>
<path d="M94.975 0H6.50804C3.17698 0 0.476196 2.69215 0.476196 6.01257V118.247C0.476196 119.354 1.37646 120.251 2.48681 120.251H98.9963C100.107 120.251 101.007 119.354 101.007 118.247V6.01257C101.007 2.69215 98.3061 0 94.975 0ZM4.49742 6.01257C4.49742 4.90576 5.39768 4.00838 6.50804 4.00838H94.975C96.0854 4.00838 96.9856 4.90576 96.9856 6.01257V24.0503H4.49742V6.01257ZM4.49742 116.243V28.0587H96.9856V116.243H4.49742Z" fill="#005EA7"/>
<path d="M64.8158 22.0461H36.6672C35.5569 22.0461 34.6566 21.1487 34.6566 20.0419V8.01676C34.6566 6.90996 35.5569 6.01257 36.6672 6.01257H64.8158C65.9262 6.01257 66.8264 6.90996 66.8264 8.01676V20.0419C66.8264 21.1487 65.9262 22.0461 64.8158 22.0461ZM38.6778 18.0377H62.8052V10.021H38.6778V18.0377Z" fill="#005EA7"/>
<path d="M28.6247 12.0252H24.6035C23.4932 12.0252 22.5929 11.1278 22.5929 10.021C22.5929 8.91417 23.4932 8.01678 24.6035 8.01678H28.6247C29.7351 8.01678 30.6354 8.91417 30.6354 10.021C30.6354 11.1278 29.7351 12.0252 28.6247 12.0252Z" fill="#005EA7"/>
<path d="M28.6247 20.0419H24.6035C23.4932 20.0419 22.5929 19.1445 22.5929 18.0377C22.5929 16.9309 23.4932 16.0335 24.6035 16.0335H28.6247C29.7351 16.0335 30.6354 16.9309 30.6354 18.0377C30.6354 19.1445 29.7351 20.0419 28.6247 20.0419Z" fill="#005EA7"/>
<path d="M90.9538 12.0252H86.9326C85.8223 12.0252 84.922 11.1278 84.922 10.021C84.922 8.91417 85.8223 8.01678 86.9326 8.01678H90.9538C92.0642 8.01678 92.9644 8.91417 92.9644 10.021C92.9644 11.1278 92.0642 12.0252 90.9538 12.0252Z" fill="#005EA7"/>
<path d="M90.9538 20.0419H86.9326C85.8223 20.0419 84.922 19.1445 84.922 18.0377C84.922 16.9309 85.8223 16.0335 86.9326 16.0335H90.9538C92.0642 16.0335 92.9644 16.9309 92.9644 18.0377C92.9644 19.1445 92.0642 20.0419 90.9538 20.0419Z" fill="#005EA7"/>
<path d="M76.8795 20.0419C73.5484 20.0419 70.8477 17.3498 70.8477 14.0294C70.8477 10.7089 73.5484 8.01678 76.8795 8.01678C80.2105 8.01678 82.9113 10.7089 82.9113 14.0294C82.9113 17.3498 80.2105 20.0419 76.8795 20.0419ZM76.8795 12.0252C75.7691 12.0252 74.8689 12.9225 74.8689 14.0294C74.8689 15.1362 75.7691 16.0335 76.8795 16.0335C77.9898 16.0335 78.8901 15.1362 78.8901 14.0294C78.8901 12.9225 77.9898 12.0252 76.8795 12.0252Z" fill="#005EA7"/>
<path d="M14.5505 20.0419C11.2195 20.0419 8.51868 17.3498 8.51868 14.0294C8.51868 10.7089 11.2195 8.01678 14.5505 8.01678C17.8816 8.01678 20.5824 10.7089 20.5824 14.0294C20.5824 17.3498 17.8816 20.0419 14.5505 20.0419ZM14.5505 12.0252C13.4402 12.0252 12.5399 12.9225 12.5399 14.0294C12.5399 15.1362 13.4402 16.0335 14.5505 16.0335C15.6609 16.0335 16.5611 15.1362 16.5611 14.0294C16.5611 12.9225 15.6609 12.0252 14.5505 12.0252Z" fill="#005EA7"/>
<path d="M50.7416 108.226C30.7542 108.226 14.5505 92.0743 14.5505 72.1508C14.5505 52.2274 30.7542 36.0754 50.7416 36.0754C70.7289 36.0754 86.9326 52.2274 86.9326 72.1508C86.9091 92.0655 70.7201 108.203 50.7416 108.226ZM50.7416 40.0838C32.9749 40.0838 18.5718 54.441 18.5718 72.1508C18.5718 89.8607 32.9749 104.218 50.7416 104.218C68.5082 104.218 82.9114 89.8607 82.9114 72.1508C82.8908 54.4498 68.4994 40.1044 50.7416 40.0838Z" fill="#005EA7"/>
</svg>
