<?xml version="1.0" encoding="utf-8"?>
<!-- Generator: Adobe Illustrator 19.0.0, SVG Export Plug-In . SVG Version: 6.00 Build 0)  -->
<svg version="1.1" id="Слой_1" xmlns="http://www.w3.org/2000/svg" xmlns:xlink="http://www.w3.org/1999/xlink" x="0px" y="0px"
	 viewBox="241 -241 512 512" style="enable-background:new 241 -241 512 512;" xml:space="preserve">
<style type="text/css">
	.st0{fill:#3F4951;}
</style>
<path class="st0" d="M676.9-166.6C628.8-214.6,564.8-241,496.7-241c-67.9,0-132,26.4-180.4,74.3c-48.5,48-75.2,111.8-75.3,179.3v0.1
	v0c0,40.9,10.8,82.2,31.2,119.8L241.7,271l140-31.8c35.5,17.9,75,27.3,114.9,27.3h0.1c67.9,0,132-26.4,180.4-74.3
	c48.5-48,75.3-111.7,75.3-179.3C752.5-54.3,725.7-118.1,676.9-166.6z M496.7,226.5L496.7,226.5c-35.9,0-71.4-9-102.8-26l-6.6-3.6
	l-93.1,21.2l20.2-91.9l-3.9-6.7C291.2,86,281,49.1,281,12.7C281-105.1,377.8-201,496.7-201c57.4,0,111.4,22.3,152,62.7
	c41.2,41,63.8,94.7,63.8,151.2C712.5,130.6,615.7,226.5,496.7,226.5z"/>
<path class="st0" d="M427.2-99.1h-11.2c-3.9,0-10.2,1.5-15.6,7.3c-5.4,5.8-20.5,19.9-20.5,48.6s21,56.4,23.9,60.3
	c2.9,3.9,40.5,64.6,99.9,88c49.4,19.4,59.5,15.6,70.2,14.6c10.7-1,34.6-14.1,39.5-27.7s4.9-25.3,3.4-27.7c-1.5-2.4-5.4-3.9-11.2-6.8
	c-5.9-2.9-34.5-17.3-39.9-19.2c-5.4-1.9-9.3-2.9-13.2,2.9c-3.9,5.8-15.4,19.3-18.8,23.2c-3.4,3.9-6.8,4.4-12.7,1.5
	c-5.9-2.9-24.5-9.2-46.8-29.1c-17.4-15.5-29.5-35.2-32.9-41c-3.4-5.8-0.4-9,2.6-11.9c2.6-2.6,6.2-6.2,9.1-9.6
	c2.9-3.4,3.8-5.8,5.7-9.7c1.9-3.9,1-7.3-0.5-10.2c-1.5-2.9-12.7-31.8-17.9-43.3h0C435.9-98.6,431.3-99,427.2-99.1z"/>
</svg>
